<svg id="SvgjsSvg1001" width="288" height="288" xmlns="http://www.w3.org/2000/svg" version="1.1" xmlns:xlink="http://www.w3.org/1999/xlink" xmlns:svgjs="http://svgjs.com/svgjs"><defs id="SvgjsDefs1002"></defs><g id="SvgjsG1008" transform="matrix(0.9167,0,0,0.9167,11.811225602340699,11.792827685928359)"><svg xmlns="http://www.w3.org/2000/svg" enable-background="new 0 0 652 652" viewBox="0 0 652 652" width="288" height="288"><path fill="#000000" d="M123 290l8.6-1.7-7.2-1.6 3.8-4.6-6.7 1.7 1.2-6.6-4.6 3.1-2.2-8.5-1.9 9.7-5.5-4.3 1.8 5.9-5.3-1 4.6 4.8-7.6 1.6 7.7 1.7-3.1 3.5 4.8-.4-2.2 6.5 5.3-5.4 1.6 8.6 1.7-8.6 4.1 4.3-.5-5.4 5.9 2L123 290zM120 287.7c0 2-1.6 3.6-3.6 3.6-2 0-3.6-1.6-3.6-3.6s1.6-3.6 3.6-3.6C118.4 284.1 120 285.7 120 287.7zM614.9 307h1.3c.8 0 1.1.5 1.1.8 0 .5-.2.8-1.1.8h-1.3V307zM616.1 309.6c.4 0 .6 0 .8.2.2.2.2.7.4 1.3 0 .4.1.7.2 1.1h.8c-.2-.6-.2-1.2-.4-1.7-.1-.6-.2-1-.8-1.2l0 0c.7-.1 1.1-.7 1.1-1.4 0-1.2-1-1.4-1.9-1.4h-2v5.8h.8v-2.6C615.1 309.6 616.1 309.6 616.1 309.6z" class="colordf3741 svgShape"></path><path fill="#000000" d="M620.2 309.2c0 2.3-1.9 4.2-4.2 4.2-2.3 0-4.2-1.9-4.2-4.2 0-2.3 1.9-4.2 4.2-4.2C618.2 305.1 620.2 306.9 620.2 309.2zM616 304.3c-2.8 0-5 2.3-5 5 0 2.8 2.3 5 5 5s5-2.3 5-5C621 306.4 618.7 304.3 616 304.3zM72.4 286.2l-7.1 24.6c-.7 2.6-1.2 5.5-1.6 8.3h-.6l-8.6-32.9H31.1L21 348.7h22l2.6-26.8c.2-2.5.4-5 .6-7.6h.7c.1 2.6.7 5.2 1.4 7.8l8.2 26.5h13.3l9-28.1c.7-2 1.1-4.2 1.4-6.2h.4l3.1 34.3h22l-10.3-62.5H72.4zM127.3 320v-15.4h-21.5v44h21.4V334c2.9 10.2 11.8 15.6 23.5 15.6 3.7 0 7.4-1 10.8-2l1-18.1c-2.5 1.8-4.9 3.4-8.3 3.4-3.5 0-6.4-2.8-6.4-6.4 0-4 2.8-6.6 6.7-6.6 3.1 0 5.6 1.8 7.9 3.6v-17.6c-4.3-1.4-9-2.3-13.4-2.3C138.4 303.6 130 310.4 127.3 320zM587.8 303.8l-7.6 17.3-2.2 6.7h-.6l-.1-6.7-2.2-17.3h-22-1.1-19.6l-.4 6.4h-.6c-2.2-4.7-6.1-7.3-11.8-7.3-10.7 0-18.6 9.2-21.6 18.8-1.1-11.4-10.6-18-23.4-18-9.6 0-18.7 4.3-24.1 11.8l1.7-10.6-7.2.4 2.3-14.8h-21.6l-2.4 14.8L419 305v-.2h-21l-.1 5.3h-.5c-2.5-4.3-6.6-6.2-11.9-6.2-10.4 0-18.1 8.4-21.4 17.8l2.8-17.4c-7.2-.1-11.3 1.1-16 6.8h-.5l1.4-5.9h-21.4l0 0-7.3.4 2.3-14.8H304l-2.4 14.8-5.2-.4-2.2 13.4c-2.2-4.4-6.7-7-12.7-8.3l-4.9-1.2c-1.7-.4-4.4-.7-4.1-3.1.4-2.5 3.5-3.4 5.4-3.4 4.9 0 9 2 12.5 4.7l8.6-16c-5.5-3.7-11.9-5.5-19-5.5-13.6 0-28.4 8.3-30.8 23.2-1.6 9.8 5 15 13.7 16.6l4.4.8c2 .4 4.9.7 4.6 3.5-.5 2.8-4.2 3.7-6.4 3.7-5.3 0-9.7-2.5-13.3-5.8 0 0-.5-.5-1.2-1.2-.4-15-12.4-22.9-26.6-22.9-9.5 0-17.9 3.5-22.7 10.2v-10.2c-7.2-.1-11.2 1.1-14.9 6.8h-.5l.5-5.9h-21.4v44h21.4v-16.9c0-5.5 2.9-8.8 8.4-8.8 1.1 0 1.9.2 2.8.5-.1 1.2-.2 2.4-.2 3.7 0 14.6 13 22.4 26.8 22.4 6.4 0 12.6-1.7 17.4-5 6.5 3.5 15.1 5.6 22.9 5.6 13.6 0 28.3-7.4 30.7-22.3.4-2.4.4-4.4 0-6.2l3.7-.2-4.7 27.4h21.6l4.3-27.4 7.2.5-4.3 27.1h21.4l2.6-16.9c.8-5.5 4.2-8.8 9.7-8.8 2.5 0 4 1 5.8 2.2-.1.5-.2 1-.2 1.4-1.7 10.7 3 22.8 15 22.8 6 0 10-2.6 14.5-6.8h.5l-1.6 5.8h21l4.3-27.1 4.6-.4-4.3 27.5h21.6l4.3-27.4 4.7.2c-.7 1.8-1.2 3.7-1.6 5.8-2.4 15.2 9.1 22.3 23 22.3 10.1 0 22.8-4.9 27.2-15.5h-20.9c-.7 2-2.6 3.6-4.9 3.6-4.4 0-4.4-4-3.8-7.6h30.5c0 9.6 5.2 18.6 15.6 18.6 5 0 11.2-2.5 14-7.3h.6l-1.1 4.4c-1.3 5.5-5.5 9.7-11.3 9.7-5.3 0-11-1.9-14.6-5.4l-7.1 14.9 2 .7c5.9 2.3 11.5 3.5 18.4 3.5 15.4 0 30.6-7 33.2-24.1l6.2-39.1 11.8 37.3L549.7 366h22.6l38-62.3L587.8 303.8 587.8 303.8zM225.2 333.1c-3.4 0-6-2.5-6-6 0-3.6 2.4-6.5 6-6.5 3.6 0 6 2.9 6 6.5C231.2 330.6 228.6 333.1 225.2 333.1zM395.3 326.4c-.5 3.4-2.8 6.6-6.7 6.6-3.8 0-5-3-4.6-6.5.5-3.2 3.1-6 6.5-6C393.8 320.5 395.8 322.9 395.3 326.4zM478.1 321.1v.2l0 0 0 0h-.2-10.1-.4V321c.5-3.2 2.4-5.4 4.9-5.9.4-.1.7-.1 1.1-.1 1.4 0 2.6.6 3.5 1.6C478 317.7 478.4 319.3 478.1 321.1zM529.7 325.9c-.5 3.4-2.8 6.1-6.4 6.1-3.7 0-5.6-2.6-5-6.2.6-3.5 3.4-6.4 6.8-6.4C528.7 319.5 530.2 322.6 529.7 325.9z" class="colordf3741 svgShape"></path></svg></g></svg>