<svg data-v-423bf9ae="" xmlns="http://www.w3.org/2000/svg" viewBox="0 0 345 90" class="iconLeft"><!----><!----><!----><g data-v-423bf9ae="" id="5f5387c1-89d3-4312-a78f-8998770d054a" fill="#BBB6B6" transform="matrix(5.623242696436797,0,0,5.623242696436797,85.9269919982386,15.056231705444244)"><path d="M3.11 2.93L3.11 5.01L4.13 5.01L4.13 5.01Q4.37 5.01 4.61 4.96L4.61 4.96L4.61 4.96Q4.84 4.90 5.03 4.77L5.03 4.77L5.03 4.77Q5.21 4.63 5.32 4.42L5.32 4.42L5.32 4.42Q5.43 4.21 5.43 3.91L5.43 3.91L5.43 3.91Q5.43 3.60 5.32 3.40L5.32 3.40L5.32 3.40Q5.21 3.21 5.02 3.10L5.02 3.10L5.02 3.10Q4.83 3.00 4.58 2.96L4.58 2.96L4.58 2.96Q4.34 2.93 4.06 2.93L4.06 2.93L3.11 2.93ZM7.66 7.74L7.66 7.76L7.66 7.76Q7.66 8.51 7.34 9.04L7.34 9.04L7.34 9.04Q7.03 9.56 6.50 9.89L6.50 9.89L6.50 9.89Q5.98 10.22 5.31 10.36L5.31 10.36L5.31 10.36Q4.63 10.50 3.92 10.50L3.92 10.50L1.13 10.50L1.13 1.36L4.10 1.36L4.10 1.36Q4.76 1.36 5.36 1.49L5.36 1.49L5.36 1.49Q5.95 1.62 6.40 1.92L6.40 1.92L6.40 1.92Q6.85 2.23 7.11 2.72L7.11 2.72L7.11 2.72Q7.38 3.21 7.39 3.93L7.39 3.93L7.39 3.95L7.39 3.95Q7.39 4.59 7.11 4.96L7.11 4.96L7.11 4.96Q6.82 5.32 6.48 5.52L6.48 5.52L6.48 5.52Q6.09 5.74 5.59 5.80L5.59 5.80L5.59 5.80Q6.16 5.85 6.62 6.09L6.62 6.09L6.62 6.09Q7.01 6.29 7.34 6.68L7.34 6.68L7.34 6.68Q7.66 7.07 7.66 7.74L7.66 7.74ZM3.11 8.95L4.21 8.95L4.21 8.95Q4.51 8.95 4.77 8.88L4.77 8.88L4.77 8.88Q5.04 8.82 5.24 8.67L5.24 8.67L5.24 8.67Q5.45 8.53 5.57 8.29L5.57 8.29L5.57 8.29Q5.68 8.05 5.68 7.70L5.68 7.70L5.68 7.70Q5.68 7.34 5.56 7.10L5.56 7.10L5.56 7.10Q5.43 6.86 5.22 6.72L5.22 6.72L5.22 6.72Q5.01 6.58 4.73 6.52L4.73 6.52L4.73 6.52Q4.44 6.47 4.12 6.47L4.12 6.47L3.11 6.47L3.11 8.95ZM13.62 3.18L13.62 5.10L13.62 5.10Q13.30 5.03 13.04 5.02L13.04 5.02L13.04 5.02Q12.78 5.01 12.56 5.03L12.56 5.03L12.56 5.03Q12.11 5.05 11.82 5.22L11.82 5.22L11.82 5.22Q11.54 5.39 11.38 5.66L11.38 5.66L11.38 5.66Q11.23 5.94 11.17 6.28L11.17 6.28L11.17 6.28Q11.12 6.62 11.12 6.99L11.12 6.99L11.12 10.50L9.23 10.50L9.23 3.36L10.61 3.36L10.91 4.93L10.91 4.93Q10.91 4.93 10.94 4.77L10.94 4.77L10.94 4.77Q10.98 4.61 11.08 4.38L11.08 4.38L11.08 4.38Q11.19 4.14 11.38 3.88L11.38 3.88L11.38 3.88Q11.58 3.63 11.88 3.43L11.88 3.43L11.88 3.43Q12.18 3.23 12.61 3.15L12.61 3.15L12.61 3.15Q13.03 3.07 13.62 3.18L13.62 3.18ZM16.80 10.50L14.91 10.50L14.91 3.29L16.80 3.29L16.80 10.50ZM16.90 1.02L16.90 1.02L16.90 1.02Q16.90 1.47 16.59 1.78L16.59 1.78L16.59 1.78Q16.28 2.09 15.85 2.09L15.85 2.09L15.85 2.09Q15.40 2.09 15.09 1.78L15.09 1.78L15.09 1.78Q14.78 1.47 14.78 1.02L14.78 1.02L14.78 1.02Q14.78 0.59 15.09 0.29L15.09 0.29L15.09 0.29Q15.40-0.01 15.85-0.01L15.85-0.01L15.85-0.01Q16.28-0.01 16.59 0.29L16.59 0.29L16.59 0.29Q16.90 0.59 16.90 1.02ZM21.59 3.12L21.59 3.12L21.59 3.12Q22.05 3.12 22.58 3.27L22.58 3.27L22.58 3.27Q23.11 3.42 23.58 3.75L23.58 3.75L23.58 3.75Q24.04 4.07 24.33 4.59L24.33 4.59L24.33 4.59Q24.63 5.11 24.61 5.85L24.61 5.85L24.61 10.50L23.24 10.50L23.24 10.50Q23.24 10.50 23.20 10.33L23.20 10.33L23.20 10.33Q23.16 10.16 23.11 9.95L23.11 9.95L23.11 9.95Q23.06 9.74 23.02 9.58L23.02 9.58L23.02 9.58Q22.97 9.42 22.97 9.44L22.97 9.44L22.97 9.44Q22.78 9.79 22.46 10.05L22.46 10.05L22.46 10.05Q22.18 10.29 21.73 10.47L21.73 10.47L21.73 10.47Q21.29 10.65 20.65 10.65L20.65 10.65L20.65 10.65Q20.20 10.65 19.77 10.52L19.77 10.52L19.77 10.52Q19.33 10.39 18.99 10.13L18.99 10.13L18.99 10.13Q18.65 9.87 18.43 9.48L18.43 9.48L18.43 9.48Q18.21 9.09 18.20 8.57L18.20 8.57L18.20 8.57Q18.17 8.02 18.35 7.59L18.35 7.59L18.35 7.59Q18.52 7.17 18.85 6.86L18.85 6.86L18.85 6.86Q19.18 6.55 19.64 6.36L19.64 6.36L19.64 6.36Q20.10 6.17 20.65 6.10L20.65 6.10L20.65 6.10Q21.17 6.03 21.78 6.03L21.78 6.03L21.78 6.03Q22.40 6.03 22.89 6.06L22.89 6.06L22.89 5.84L22.89 5.84Q22.89 5.24 22.62 4.93L22.62 4.93L22.62 4.93Q22.36 4.63 21.96 4.54L21.96 4.54L21.96 4.54Q21.56 4.45 21.08 4.52L21.08 4.52L21.08 4.52Q20.61 4.59 20.17 4.72L20.17 4.72L20.17 4.72Q19.74 4.86 19.41 5.00L19.41 5.00L19.41 5.00Q19.08 5.15 19.00 5.22L19.00 5.22L19.00 3.81L19.00 3.81Q19.01 3.79 19.25 3.69L19.25 3.69L19.25 3.69Q19.49 3.58 19.85 3.46L19.85 3.46L19.85 3.46Q20.22 3.33 20.67 3.23L20.67 3.23L20.67 3.23Q21.13 3.12 21.59 3.12ZM22.48 8.68L22.48 8.68L22.48 8.68Q22.72 8.37 22.80 7.99L22.80 7.99L22.80 7.99Q22.88 7.62 22.88 7.20L22.88 7.20L22.06 7.20L22.06 7.20Q21.74 7.20 21.38 7.24L21.38 7.24L21.38 7.24Q21.01 7.28 20.71 7.41L20.71 7.41L20.71 7.41Q20.40 7.53 20.19 7.78L20.19 7.78L20.19 7.78Q19.98 8.02 19.98 8.44L19.98 8.44L19.98 8.44Q19.98 8.90 20.32 9.11L20.32 9.11L20.32 9.11Q20.66 9.32 21.17 9.32L21.17 9.32L21.17 9.32Q21.60 9.32 21.93 9.15L21.93 9.15L21.93 9.15Q22.26 8.97 22.48 8.68ZM30.63 3.12L30.63 3.12L30.63 3.12Q31.28 3.12 31.74 3.34L31.74 3.34L31.74 3.34Q32.20 3.56 32.50 3.93L32.50 3.93L32.50 3.93Q32.80 4.31 32.94 4.83L32.94 4.83L32.94 4.83Q33.08 5.35 33.08 5.95L33.08 5.95L33.08 10.50L31.21 10.50L31.21 6.58L31.21 6.58Q31.21 5.54 30.93 5.05L30.93 5.05L30.93 5.05Q30.65 4.56 29.96 4.56L29.96 4.56L29.96 4.56Q29.13 4.56 28.73 5.25L28.73 5.25L28.73 5.25Q28.34 5.94 28.34 7.06L28.34 7.06L28.34 10.50L26.46 10.50L26.46 3.29L27.86 3.29L28.24 4.27L28.24 4.27Q28.38 4.12 28.55 3.91L28.55 3.91L28.55 3.91Q28.71 3.71 28.97 3.54L28.97 3.54L28.97 3.54Q29.23 3.36 29.63 3.24L29.63 3.24L29.63 3.24Q30.03 3.12 30.63 3.12ZM36.79 8.48L36.79 8.48L36.79 8.48Q36.81 8.72 36.92 8.86L36.92 8.86L36.92 8.86Q37.03 9.00 37.19 9.06L37.19 9.06L37.19 9.06Q37.35 9.13 37.55 9.13L37.55 9.13L37.55 9.13Q37.76 9.14 37.98 9.11L37.98 9.11L37.98 10.56L37.98 10.56Q37.79 10.60 37.64 10.62L37.64 10.62L37.64 10.62Q37.49 10.64 37.38 10.65L37.38 10.65L37.38 10.65Q37.25 10.67 37.17 10.65L37.17 10.65L37.17 10.65Q36.64 10.65 36.22 10.61L36.22 10.61L36.22 10.61Q35.80 10.57 35.50 10.34L35.50 10.34L35.50 10.34Q35.21 10.11 35.06 9.64L35.06 9.64L35.06 9.64Q34.90 9.17 34.90 8.30L34.90 8.30L34.90 1.55L36.79 1.55L36.79 8.48ZM43.20 10.65L43.20 10.65L43.20 10.65Q42.04 10.65 41.29 10.35L41.29 10.35L41.29 10.35Q40.53 10.04 40.07 9.52L40.07 9.52L40.07 9.52Q39.62 9.00 39.44 8.32L39.44 8.32L39.44 8.32Q39.26 7.64 39.26 6.89L39.26 6.89L39.26 6.89Q39.26 6.22 39.44 5.54L39.44 5.54L39.44 5.54Q39.62 4.87 40.02 4.33L40.02 4.33L40.02 4.33Q40.42 3.79 41.06 3.46L41.06 3.46L41.06 3.46Q41.71 3.12 42.63 3.12L42.63 3.12L42.63 3.12Q43.61 3.12 44.26 3.46L44.26 3.46L44.26 3.46Q44.91 3.79 45.30 4.33L45.30 4.33L45.30 4.33Q45.70 4.87 45.86 5.54L45.86 5.54L45.86 5.54Q46.02 6.22 46.02 6.89L46.02 6.89L46.02 7.52L41.06 7.52L41.06 7.52Q41.06 8.27 41.60 8.76L41.60 8.76L41.60 8.76Q42.14 9.25 43.08 9.25L43.08 9.25L43.08 9.25Q43.61 9.25 44.06 9.14L44.06 9.14L44.06 9.14Q44.51 9.03 44.83 8.89L44.83 8.89L44.83 8.89Q45.19 8.74 45.50 8.53L45.50 8.53L45.50 10.09L45.50 10.09Q45.50 10.11 45.32 10.19L45.32 10.19L45.32 10.19Q45.14 10.28 44.83 10.38L44.83 10.38L44.83 10.38Q44.52 10.49 44.10 10.57L44.10 10.57L44.10 10.57Q43.68 10.65 43.20 10.65ZM41.06 6.19L44.24 6.19L44.24 6.19Q44.24 5.95 44.18 5.66L44.18 5.66L44.18 5.66Q44.11 5.38 43.94 5.12L43.94 5.12L43.94 5.12Q43.76 4.87 43.45 4.70L43.45 4.70L43.45 4.70Q43.13 4.54 42.63 4.54L42.63 4.54L42.63 4.54Q42.20 4.54 41.89 4.70L41.89 4.70L41.89 4.70Q41.59 4.87 41.41 5.12L41.41 5.12L41.41 5.12Q41.23 5.38 41.15 5.66L41.15 5.66L41.15 5.66Q41.06 5.95 41.06 6.19L41.06 6.19Z"></path></g><!----><g data-v-423bf9ae="" id="f4c0e8dc-d30f-4b60-958f-f598fad09472" transform="matrix(2.8125,0,0,2.8125,-8.850001245737076,0)" stroke="none" fill="#D4CFCF"><path d="M16 8.204l7.065 3.915v7.761L16 23.796 8.935 19.88v-7.76L16 8.204m0-1.143l-8.065 4.47v8.939L16 24.939l8.065-4.47V11.53L16 7.061zM27.85 1v3.356H4.15V1h23.7m1-1H3.15v5.356h25.7V0zM27.85 27.644V31H4.15v-3.356h23.7m1-1H3.15V32h25.7v-5.356z"></path></g><!----></svg>